<svg xmlns="http://www.w3.org/2000/svg" xmlns:xlink="http://www.w3.org/1999/xlink" version="1.1" x="0px" y="0px" viewBox="0 0 100 100" enable-background="new 0 0 100 100" xml:space="preserve"><path fill="#000000" d="M41,41L26,74l33-15l15-33L41,41z M38.083,61.917l7.448-16.386l8.938,8.938L38.083,61.917z"/><path fill="#000000" d="M89,50c0,21.505-17.495,39-39,39c-21.505,0-39-17.495-39-39s17.495-39,39-39C71.505,11,89,28.495,89,50   M95,50C95,25.147,74.853,5,50,5C25.147,5,5,25.147,5,50s20.147,45,45,45C74.853,95,95,74.853,95,50L95,50z"/></svg>